<svg width="334" height="396" viewBox="0 0 334 396" fill="none" xmlns="http://www.w3.org/2000/svg">
<path d="M92.4316 368.32C73.3887 362.949 59.8145 354.404 51.709 342.686C43.7012 330.967 39.6973 316.807 39.6973 300.205V270.176C39.6973 259.238 37.207 250.742 32.2266 244.688C27.2461 238.535 19.5801 235.459 9.22852 235.459V213.926C19.5801 213.926 27.2461 210.947 32.2266 204.99C37.207 198.936 39.6973 190.391 39.6973 179.355V149.18C39.6973 132.48 43.7012 118.32 51.709 106.699C59.8145 94.9805 73.3887 86.4355 92.4316 81.0645L98.291 98.2031C87.5488 101.621 79.8828 107.773 75.293 116.66C70.8008 125.449 68.5547 136.289 68.5547 149.18V179.355C68.5547 189.609 66.5039 198.643 62.4023 206.455C58.3008 214.268 52.0996 220.371 43.7988 224.766C52.0996 229.258 58.3008 235.459 62.4023 243.369C66.5039 251.182 68.5547 260.117 68.5547 270.176V300.205C68.5547 313.096 70.8008 323.887 75.293 332.578C79.8828 341.367 87.5488 347.52 98.291 351.035L92.4316 368.32ZM115.869 175.107V156.504H165.527L168.311 179.502C172.803 171.396 178.32 165.049 184.863 160.459C191.504 155.869 199.072 153.574 207.568 153.574C209.814 153.574 212.109 153.77 214.453 154.16C216.895 154.453 218.75 154.795 220.02 155.186L216.211 181.992L199.805 181.113C192.188 181.113 185.791 182.92 180.615 186.533C175.439 190.049 171.436 195.029 168.604 201.475V292.441L192.48 296.543V315H115.869V296.543L139.746 292.441V179.209L115.869 175.107ZM231.006 351.035C241.553 347.52 249.121 341.367 253.711 332.578C258.301 323.887 260.596 313.096 260.596 300.205V270.176C260.596 259.727 262.793 250.596 267.188 242.783C271.582 234.971 278.369 228.965 287.549 224.766C278.369 220.762 271.582 214.854 267.188 207.041C262.793 199.229 260.596 190 260.596 179.355V149.18C260.596 136.289 258.301 125.449 253.711 116.66C249.121 107.773 241.553 101.621 231.006 98.2031L236.865 81.0645C255.811 86.4355 269.287 94.9805 277.295 106.699C285.4 118.32 289.453 132.48 289.453 149.18V179.355C289.453 190.391 291.943 198.936 296.924 204.99C301.904 210.947 309.619 213.926 320.068 213.926V235.459C309.619 235.459 301.904 238.535 296.924 244.688C291.943 250.742 289.453 259.238 289.453 270.176V300.205C289.453 316.807 285.4 330.967 277.295 342.686C269.287 354.404 255.811 362.949 236.865 368.32L231.006 351.035Z" fill="#B51E14"/>
</svg>
